<svg width="368" height="161" viewBox="0 0 368 161" fill="none" xmlns="http://www.w3.org/2000/svg">
<path d="M0.9375 45.9375C0.9375 44 1.28125 42.4062 1.96875 41.1562C2.71875 39.9062 3.71875 38.9062 4.96875 38.1562C6.21875 37.3438 7.59375 36.75 9.09375 36.375C10.6562 36 12.25 35.75 13.875 35.625C15.5625 35.4375 17.1875 35.375 18.75 35.4375C20.3125 35.4375 21.75 35.4375 23.0625 35.4375C25.625 35.4375 28.1875 35.6875 30.75 36.1875C33.3125 36.6875 35.5625 37.5625 37.5 38.8125C39.5 40.0625 41.125 41.75 42.375 43.875C43.625 45.9375 44.25 48.5312 44.25 51.6562C44.25 54.4062 43.6875 57.1562 42.5625 59.9062C41.5 62.5938 40.0938 65.1875 38.3438 67.6875C36.6562 70.125 34.7188 72.375 32.5312 74.4375C30.3438 76.4375 28.1562 78.1562 25.9688 79.5938C23.8438 81.0312 21.7812 82.1562 19.7812 82.9688C17.8438 83.7812 16.2188 84.0938 14.9062 83.9062C14.1562 86.3438 13.6875 88.9688 13.5 91.7812C13.375 94.5312 13.3438 97.25 13.4062 99.9375C13.4688 102.562 13.5625 105.094 13.6875 107.531C13.8125 109.906 13.6875 111.969 13.3125 113.719C13 115.406 12.375 116.688 11.4375 117.562C10.5 118.375 9.0625 118.625 7.125 118.312C6.5625 113.875 6.125 109.375 5.8125 104.812C5.5625 100.25 5.34375 95.7188 5.15625 91.2188C4.96875 86.7188 4.78125 82.3438 4.59375 78.0938C4.46875 73.7812 4.25 69.6875 3.9375 65.8125C3.6875 61.9375 3.3125 58.3125 2.8125 54.9375C2.3125 51.5625 1.6875 48.5625 0.9375 45.9375ZM24.0938 43.5C23.1562 43.5 22 43.5312 20.625 43.5938C19.25 43.6562 17.9062 43.875 16.5938 44.25C15.3438 44.5625 14.2812 45.1562 13.4062 46.0312C12.5312 46.8438 12.0938 48.0312 12.0938 49.5938V74.1562C14.6562 74.1562 17.375 73.4688 20.25 72.0938C23.125 70.7188 25.75 68.9688 28.125 66.8438C30.5 64.7188 32.4688 62.3125 34.0312 59.625C35.5938 56.9375 36.375 54.2812 36.375 51.6562C36.375 49.7188 36 48.2188 35.25 47.1562C34.5625 46.0938 33.625 45.2812 32.4375 44.7188C31.3125 44.1562 30.0312 43.8125 28.5938 43.6875C27.1562 43.5625 25.6562 43.5 24.0938 43.5ZM48.0938 93.9375C48.0938 90.5625 48.5 87.1875 49.3125 83.8125C50.125 80.4375 51.4062 77.4062 53.1562 74.7188C54.9688 72.0312 57.2812 69.8438 60.0938 68.1562C62.9688 66.4688 66.4375 65.625 70.5 65.625C72.8125 65.625 74.8438 66.0625 76.5938 66.9375C78.3438 67.75 79.8125 68.8438 81 70.2188C82.1875 71.5938 83.0625 73.2188 83.625 75.0938C84.25 76.9062 84.5625 78.8125 84.5625 80.8125C84.5625 84 83.8125 87.0938 82.3125 90.0938C80.875 93.0938 78.9062 95.75 76.4062 98.0625C73.9688 100.312 71.1562 102.031 67.9688 103.219C64.7812 104.344 61.5312 104.594 58.2188 103.969C58.2812 105.781 58.875 107.25 60 108.375C61.1875 109.438 62.5938 110.25 64.2188 110.812C65.8438 111.375 67.5312 111.75 69.2812 111.938C71.0312 112.062 72.5938 112.125 73.9688 112.125C75.4062 112.125 76.75 112 78 111.75C79.25 111.5 80.5 111.219 81.75 110.906C83 110.594 84.25 110.312 85.5 110.062C86.8125 109.812 88.1875 109.688 89.625 109.688C90.1875 109.688 90.75 109.719 91.3125 109.781C91.875 109.844 92.4062 110 92.9062 110.25C93.4062 110.438 93.8125 110.781 94.125 111.281C94.4375 111.719 94.5938 112.281 94.5938 112.969C94.5938 114.156 94.1562 115.156 93.2812 115.969C92.4062 116.719 91.2812 117.375 89.9062 117.938C88.5938 118.5 87.125 118.938 85.5 119.25C83.875 119.5 82.2812 119.719 80.7188 119.906C79.2188 120.031 77.8125 120.094 76.5 120.094C75.25 120.156 74.3125 120.188 73.6875 120.188C69.6875 120.188 66.0938 119.562 62.9062 118.312C59.7188 117 57.0312 115.219 54.8438 112.969C52.6562 110.656 50.9688 107.906 49.7812 104.719C48.6562 101.469 48.0938 97.875 48.0938 93.9375ZM58.0312 87.8438C58.0312 90.0312 58.3125 91.625 58.875 92.625C59.5 93.625 60.9688 94.125 63.2812 94.125C64.9062 94.125 66.5 93.8438 68.0625 93.2812C69.625 92.6562 71.0312 91.8125 72.2812 90.75C73.5938 89.6875 74.625 88.4375 75.375 87C76.125 85.5625 76.5 84 76.5 82.3125C76.5 81.375 76.4062 80.4062 76.2188 79.4062C76.0938 78.4062 75.7812 77.5 75.2812 76.6875C74.7812 75.8125 74.125 75.125 73.3125 74.625C72.5625 74.0625 71.5625 73.7812 70.3125 73.7812C68.4375 73.7812 66.7188 74.2188 65.1562 75.0938C63.6562 75.9062 62.375 77 61.3125 78.375C60.25 79.6875 59.4375 81.1875 58.875 82.875C58.3125 84.5 58.0312 86.1562 58.0312 87.8438ZM100.406 80.625C100.406 80.0625 100.438 79.5 100.5 78.9375C100.562 78.3125 100.688 77.7812 100.875 77.3438C101.062 76.8438 101.344 76.4375 101.719 76.125C102.156 75.8125 102.75 75.6562 103.5 75.6562C104.125 75.6562 104.812 76.1562 105.562 77.1562C106.375 78.0938 107.188 79.3125 108 80.8125C108.812 82.25 109.594 83.8438 110.344 85.5938C111.156 87.3438 111.844 88.9688 112.406 90.4688C113.031 91.9062 113.531 93.1562 113.906 94.2188C114.281 95.2812 114.5 95.8438 114.562 95.9062C115.375 93.7188 116.281 91.3438 117.281 88.7812C118.281 86.2188 119.5 83.8438 120.938 81.6562C122.438 79.4062 124.188 77.5312 126.188 76.0312C128.25 74.5312 130.75 73.7812 133.688 73.7812C135.188 73.7812 136.594 74.0312 137.906 74.5312C139.281 74.9688 140.469 75.6562 141.469 76.5938C142.531 77.4688 143.375 78.5312 144 79.7812C144.625 81.0312 144.938 82.4688 144.938 84.0938C144.938 85.4688 144.375 86.4375 143.25 87C142.188 87.5625 140.969 87.8438 139.594 87.8438H138.656L134.625 83.8125C134.5 83.8125 134.406 83.7812 134.344 83.7188C134.219 83.7188 134.094 83.7188 133.969 83.7188C133.906 83.6562 133.812 83.625 133.688 83.625C131.5 83.625 129.781 84.25 128.531 85.5C127.344 86.6875 126.438 88.1875 125.812 90C125.188 91.75 124.781 93.625 124.594 95.625C124.469 97.5625 124.406 99.3438 124.406 100.969C124.406 102.219 124.531 103.5 124.781 104.812C125.031 106.062 125.312 107.312 125.625 108.562C125.938 109.75 126.219 111 126.469 112.312C126.719 113.562 126.844 114.875 126.844 116.25C126.844 118.875 125.438 120.188 122.625 120.188C121.062 120.188 119.438 119.375 117.75 117.75C116.062 116.062 114.375 113.938 112.688 111.375C111.062 108.812 109.5 106 108 102.938C106.5 99.8125 105.188 96.7812 104.062 93.8438C102.938 90.9062 102.031 88.25 101.344 85.875C100.719 83.5 100.406 81.75 100.406 80.625ZM186.469 128.719C185.156 126.281 183.688 123.25 182.062 119.625C180.5 115.938 178.875 112.125 177.188 108.188C175.5 104.188 173.719 100.281 171.844 96.4688C170.031 92.6562 168.188 89.3438 166.312 86.5312C165.562 85.9688 164.531 85.625 163.219 85.5C161.906 85.375 160.531 85.3438 159.094 85.4062C157.656 85.4062 156.219 85.375 154.781 85.3125C153.406 85.1875 152.188 84.8438 151.125 84.2812C150.125 83.7188 149.375 82.8438 148.875 81.6562C148.375 80.4688 148.281 78.75 148.594 76.5H164.344C164.656 73 165.188 69.5312 165.938 66.0938C166.688 62.6562 167.688 59.375 168.938 56.25C170.25 53.125 171.812 50.2188 173.625 47.5312C175.438 44.8438 177.625 42.5312 180.188 40.5938C182.75 38.6562 185.688 37.125 189 36C192.375 34.875 196.188 34.3125 200.438 34.3125C201.938 34.3125 203.438 34.6875 204.938 35.4375C206.438 36.125 207.781 37.0625 208.969 38.25C210.156 39.4375 211.094 40.7812 211.781 42.2812C212.531 43.7812 212.906 45.2812 212.906 46.7812C211.719 46.7812 210.656 46.5625 209.719 46.125C208.781 45.625 207.875 45.0938 207 44.5312C206.125 43.9062 205.188 43.3438 204.188 42.8438C203.188 42.2812 202.062 42 200.812 42C197.062 42 193.562 42.75 190.312 44.25C187.125 45.75 184.312 47.75 181.875 50.25C179.5 52.75 177.625 55.6562 176.25 58.9688C174.875 62.2812 174.188 65.7812 174.188 69.4688C174.188 69.7188 174.188 70.1875 174.188 70.875C174.25 71.5 174.281 72.1875 174.281 72.9375C174.281 73.6875 174.281 74.4062 174.281 75.0938C174.344 75.7812 174.375 76.25 174.375 76.5C176.688 77.25 179.281 77.8125 182.156 78.1875C185.031 78.5625 187.906 78.8125 190.781 78.9375C193.719 79 196.531 78.9688 199.219 78.8438C201.969 78.7188 204.406 78.5625 206.531 78.375C206.719 78.5625 207.062 78.9062 207.562 79.4062C208.062 79.9062 208.344 80.2812 208.406 80.5312C208.406 80.7188 208.438 80.8438 208.5 80.9062C208.625 81.2812 208.688 81.4688 208.688 81.4688C208.688 82.7812 208 83.8125 206.625 84.5625C205.25 85.3125 203.5 85.875 201.375 86.25C199.25 86.5625 196.875 86.7812 194.25 86.9062C191.688 87.0312 189.188 87.1562 186.75 87.2812C184.375 87.3438 182.219 87.4688 180.281 87.6562C178.406 87.7812 177.094 88.0625 176.344 88.5C177.156 92.25 178.594 95.875 180.656 99.375C182.781 102.875 184.938 106.375 187.125 109.875C189.312 113.375 191.25 116.906 192.938 120.469C194.625 124.031 195.469 127.688 195.469 131.438C195.219 131.438 194.625 131.438 193.688 131.438C192.812 131.5 191.875 131.469 190.875 131.344C189.875 131.219 188.906 130.938 187.969 130.5C187.094 130.125 186.594 129.531 186.469 128.719ZM214.5 100.969C214.5 97.0938 215.406 93.5 217.219 90.1875C219.031 86.8125 221.406 83.9375 224.344 81.5625C227.344 79.125 230.688 77.2188 234.375 75.8438C238.125 74.4688 241.906 73.7812 245.719 73.7812C247.844 73.7812 249.719 74.4688 251.344 75.8438C253.031 77.2188 254.438 78.9062 255.562 80.9062C256.688 82.8438 257.531 84.9062 258.094 87.0938C258.719 89.2812 259.031 91.1875 259.031 92.8125C259.031 96.3125 258.188 99.7188 256.5 103.031C254.812 106.281 252.625 109.188 249.938 111.75C247.25 114.25 244.219 116.281 240.844 117.844C237.469 119.406 234.094 120.188 230.719 120.188C227.719 120.188 225.188 119.688 223.125 118.688C221.062 117.625 219.406 116.25 218.156 114.562C216.906 112.812 215.969 110.781 215.344 108.469C214.781 106.094 214.5 103.594 214.5 100.969ZM222.469 101.906C222.469 103.531 222.594 104.969 222.844 106.219C223.156 107.406 223.656 108.438 224.344 109.312C225.094 110.188 226.062 110.875 227.25 111.375C228.438 111.812 229.906 112.031 231.656 112.031C233.969 112.031 236.281 111.406 238.594 110.156C240.906 108.844 242.969 107.219 244.781 105.281C246.656 103.281 248.156 101.094 249.281 98.7188C250.406 96.3438 250.969 94.0312 250.969 91.7812C250.969 90.7812 250.875 89.6875 250.688 88.5C250.5 87.3125 250.188 86.2188 249.75 85.2188C249.312 84.2188 248.688 83.375 247.875 82.6875C247.062 82 246.031 81.6562 244.781 81.6562C243.656 81.6562 242.312 82.0312 240.75 82.7812C239.25 83.5312 237.656 84.5 235.969 85.6875C234.344 86.875 232.719 88.2188 231.094 89.7188C229.531 91.2188 228.094 92.7188 226.781 94.2188C225.469 95.7188 224.406 97.1562 223.594 98.5312C222.844 99.9062 222.469 101.031 222.469 101.906ZM261.094 71.5312C261.094 70.9688 261.094 70.4062 261.094 69.8438C261.156 69.2188 261.281 68.6562 261.469 68.1562C261.719 67.5938 262.031 67.1875 262.406 66.9375C262.844 66.625 263.469 66.4688 264.281 66.4688C264.344 66.4688 264.406 66.4688 264.469 66.4688C264.594 66.4688 264.719 66.4688 264.844 66.4688C265.031 66.5312 265.188 66.5625 265.312 66.5625C266.5 68.1875 267.531 70.2812 268.406 72.8438C269.281 75.3438 270.125 78.0312 270.938 80.9062C271.75 83.7188 272.625 86.5938 273.562 89.5312C274.5 92.4062 275.719 95 277.219 97.3125C278.719 99.625 280.562 101.469 282.75 102.844C284.938 104.219 287.656 104.812 290.906 104.625C292.344 104.625 293.281 103.844 293.719 102.281C294.156 100.719 294.375 98.7188 294.375 96.2812C294.438 93.8438 294.375 91.1562 294.188 88.2188C294.062 85.2812 294.062 82.5 294.188 79.875C294.375 77.1875 294.844 74.8438 295.594 72.8438C296.406 70.8438 297.781 69.5 299.719 68.8125C300.531 70.4375 301.188 73 301.688 76.5C302.25 79.9375 302.656 83.9375 302.906 88.5C303.156 93 303.281 97.9062 303.281 103.219C303.281 108.469 303.156 113.719 302.906 118.969C302.656 124.156 302.281 129.156 301.781 133.969C301.281 138.781 300.719 143 300.094 146.625C299.469 150.25 298.719 153.094 297.844 155.156C297.031 157.281 296.156 158.188 295.219 157.875C293.906 156.625 292.875 155 292.125 153C291.438 151 290.938 148.781 290.625 146.344C290.375 143.906 290.281 141.312 290.344 138.562C290.406 135.875 290.5 133.156 290.625 130.406C290.812 127.656 291 124.969 291.188 122.344C291.438 119.719 291.562 117.312 291.562 115.125C289.312 115.312 287 114.969 284.625 114.094C282.312 113.219 280.031 111.875 277.781 110.062C275.531 108.188 273.375 105.938 271.312 103.312C269.312 100.688 267.531 97.7188 265.969 94.4062C264.469 91.0938 263.281 87.5312 262.406 83.7188C261.531 79.8438 261.094 75.7812 261.094 71.5312ZM326.906 115.781C327.906 115.094 329.094 114.219 330.469 113.156C331.906 112.031 333.344 110.844 334.781 109.594C336.219 108.344 337.562 107.031 338.812 105.656C340.062 104.281 341.031 102.969 341.719 101.719C342.469 100.406 342.844 99.1875 342.844 98.0625C342.844 96.9375 342.281 96 341.156 95.25C339.156 95.25 336.969 95.3438 334.594 95.5312C332.219 95.6562 329.844 95.7188 327.469 95.7188C325.094 95.6562 322.781 95.4375 320.531 95.0625C318.344 94.6875 316.375 94 314.625 93C312.875 92 311.469 90.5938 310.406 88.7812C309.406 86.9062 308.906 84.5312 308.906 81.6562C308.906 78.2812 309.531 75.25 310.781 72.5625C312.094 69.8125 313.812 67.4062 315.938 65.3438C318.062 63.2188 320.438 61.375 323.062 59.8125C325.75 58.1875 328.438 56.8125 331.125 55.6875C332.75 56.125 334.25 56.9062 335.625 58.0312C337 59.1562 338.188 60.4062 339.188 61.7812C338.75 63.1562 337.875 64.2188 336.562 64.9688C335.312 65.7188 333.844 66.375 332.156 66.9375C330.531 67.5 328.812 68.0938 327 68.7188C325.188 69.3438 323.531 70.1875 322.031 71.25C320.594 72.25 319.375 73.5938 318.375 75.2812C317.375 76.9062 316.875 79.0625 316.875 81.75C316.875 83.75 317.375 85.2188 318.375 86.1562C319.375 87.0938 320.688 87.75 322.312 88.125C323.938 88.4375 325.781 88.5625 327.844 88.5C329.906 88.375 332 88.2188 334.125 88.0312C336.312 87.8438 338.438 87.75 340.5 87.75C342.562 87.6875 344.406 87.9375 346.031 88.5C347.656 89 348.938 89.8438 349.875 91.0312C350.875 92.2188 351.375 93.9688 351.375 96.2812C351.375 97.2812 351.031 98.5625 350.344 100.125C349.719 101.688 348.844 103.375 347.719 105.188C346.656 106.938 345.375 108.688 343.875 110.438C342.438 112.188 340.906 113.781 339.281 115.219C337.719 116.594 336.125 117.75 334.5 118.688C332.938 119.562 331.469 120 330.094 120C328.781 120 327.906 119.531 327.469 118.594C327.094 117.656 326.906 116.719 326.906 115.781Z" fill="url(#paint0_linear_435_48)"/>
<defs>
<linearGradient id="paint0_linear_435_48" x1="0" y1="80.5" x2="368" y2="80.5" gradientUnits="userSpaceOnUse">
<stop stop-color="#D504D9"/>
<stop offset="1" stop-color="#3F04BF"/>
</linearGradient>
</defs>
</svg>
